# MagicaVoxel @ Ephtracy

# group
o 

# material
mtllib torch.mtl
usemtl palette

# normals
vn -1 0 0
vn 1 0 0
vn 0 0 1
vn 0 0 -1
vn 0 -1 0
vn 0 1 0

# texcoords
vt 0.322266 0.5
vt 0.482422 0.5
vt 0.986328 0.5

# verts
v -0.2 0.8 0.2
v -0.2 0.8 -0.2
v -0.2 0.9 0.1
v -0.2 0.9 -0.1
v -0.2 1.2 0.2
v -0.2 1.2 0.1
v -0.2 1.2 -0.1
v -0.2 1.2 -0.2
v -0.1 0 0.1
v -0.1 0 -0.1
v -0.1 0.8 0.1
v -0.1 0.8 -0.1
v -0.1 0.9 0.1
v -0.1 0.9 -0.1
v -0.1 1.1 0.1
v -0.1 1.1 -0.1
v 0.1 0.9 0.2
v 0.1 0.9 0.1
v 0.1 0.9 -0.1
v 0.1 0.9 -0.2
v 0.1 1.1 0.1
v 0.1 1.1 -0.1
v 0.1 1.2 0.2
v 0.1 1.2 0.1
v 0.1 1.2 -0.1
v 0.1 1.2 -0.2
v -0.1 0.9 0.2
v -0.1 0.9 0.1
v -0.1 0.9 -0.1
v -0.1 0.9 -0.2
v -0.1 1.1 0.1
v -0.1 1.1 -0.1
v -0.1 1.2 0.2
v -0.1 1.2 0.1
v -0.1 1.2 -0.1
v -0.1 1.2 -0.2
v 0.1 0 0.1
v 0.1 0 -0.1
v 0.1 0.8 0.1
v 0.1 0.8 -0.1
v 0.1 0.9 0.1
v 0.1 0.9 -0.1
v 0.1 1.1 0.1
v 0.1 1.1 -0.1
v 0.2 0.8 0.2
v 0.2 0.8 -0.2
v 0.2 0.9 0.1
v 0.2 0.9 -0.1
v 0.2 1.2 0.2
v 0.2 1.2 0.1
v 0.2 1.2 -0.1
v 0.2 1.2 -0.2
v -0.2 0.8 0.2
v -0.2 1.2 0.2
v -0.1 0.9 0.2
v -0.1 1.2 0.2
v 0.1 0.9 0.2
v 0.1 1.2 0.2
v 0.2 0.8 0.2
v 0.2 1.2 0.2
v -0.1 0 0.1
v -0.1 0.8 0.1
v -0.1 0.9 0.1
v -0.1 1.1 0.1
v 0.1 0 0.1
v 0.1 0.8 0.1
v 0.1 0.9 0.1
v 0.1 1.1 0.1
v -0.2 0.9 -0.1
v -0.2 1.2 -0.1
v -0.1 0.9 -0.1
v -0.1 1.1 -0.1
v -0.1 1.2 -0.1
v 0.1 0.9 -0.1
v 0.1 1.1 -0.1
v 0.1 1.2 -0.1
v 0.2 0.9 -0.1
v 0.2 1.2 -0.1
v -0.2 0.9 0.1
v -0.2 1.2 0.1
v -0.1 0.9 0.1
v -0.1 1.1 0.1
v -0.1 1.2 0.1
v 0.1 0.9 0.1
v 0.1 1.1 0.1
v 0.1 1.2 0.1
v 0.2 0.9 0.1
v 0.2 1.2 0.1
v -0.1 0 -0.1
v -0.1 0.8 -0.1
v -0.1 0.9 -0.1
v -0.1 1.1 -0.1
v 0.1 0 -0.1
v 0.1 0.8 -0.1
v 0.1 0.9 -0.1
v 0.1 1.1 -0.1
v -0.2 0.8 -0.2
v -0.2 1.2 -0.2
v -0.1 0.9 -0.2
v -0.1 1.2 -0.2
v 0.1 0.9 -0.2
v 0.1 1.2 -0.2
v 0.2 0.8 -0.2
v 0.2 1.2 -0.2
v -0.1 0 0.1
v 0.1 0 0.1
v -0.1 0 -0.1
v 0.1 0 -0.1
v -0.2 0.8 0.2
v 0.2 0.8 0.2
v -0.1 0.8 0.1
v 0.1 0.8 0.1
v -0.1 0.8 -0.1
v 0.1 0.8 -0.1
v -0.2 0.8 -0.2
v 0.2 0.8 -0.2
v -0.1 0.9 0.2
v 0.1 0.9 0.2
v -0.2 0.9 0.1
v -0.1 0.9 0.1
v 0.1 0.9 0.1
v 0.2 0.9 0.1
v -0.2 0.9 -0.1
v -0.1 0.9 -0.1
v 0.1 0.9 -0.1
v 0.2 0.9 -0.1
v -0.1 0.9 -0.2
v 0.1 0.9 -0.2
v -0.1 1.1 0.1
v 0.1 1.1 0.1
v -0.1 1.1 -0.1
v 0.1 1.1 -0.1
v -0.2 1.2 0.2
v -0.1 1.2 0.2
v 0.1 1.2 0.2
v 0.2 1.2 0.2
v -0.2 1.2 0.1
v -0.1 1.2 0.1
v 0.1 1.2 0.1
v 0.2 1.2 0.1
v -0.2 1.2 -0.1
v -0.1 1.2 -0.1
v 0.1 1.2 -0.1
v 0.2 1.2 -0.1
v -0.2 1.2 -0.2
v -0.1 1.2 -0.2
v 0.1 1.2 -0.2
v 0.2 1.2 -0.2

# faces
f 3/3/1 2/3/1 1/3/1
f 4/3/1 2/3/1 3/3/1
f 5/3/1 3/3/1 1/3/1
f 6/3/1 3/3/1 5/3/1
f 7/3/1 2/3/1 4/3/1
f 8/3/1 2/3/1 7/3/1
f 11/1/1 10/1/1 9/1/1
f 12/1/1 10/1/1 11/1/1
f 15/2/1 14/2/1 13/2/1
f 16/2/1 14/2/1 15/2/1
f 21/3/1 18/3/1 17/3/1
f 22/3/1 20/3/1 19/3/1
f 23/3/1 21/3/1 17/3/1
f 24/3/1 21/3/1 23/3/1
f 25/3/1 20/3/1 22/3/1
f 26/3/1 20/3/1 25/3/1
f 27/3/2 28/3/2 31/3/2
f 29/3/2 30/3/2 32/3/2
f 27/3/2 31/3/2 33/3/2
f 33/3/2 31/3/2 34/3/2
f 32/3/2 30/3/2 35/3/2
f 35/3/2 30/3/2 36/3/2
f 37/1/2 38/1/2 39/1/2
f 39/1/2 38/1/2 40/1/2
f 41/2/2 42/2/2 43/2/2
f 43/2/2 42/2/2 44/2/2
f 45/3/2 46/3/2 47/3/2
f 47/3/2 46/3/2 48/3/2
f 45/3/2 47/3/2 49/3/2
f 49/3/2 47/3/2 50/3/2
f 48/3/2 46/3/2 51/3/2
f 51/3/2 46/3/2 52/3/2
f 55/3/3 54/3/3 53/3/3
f 56/3/3 54/3/3 55/3/3
f 57/3/3 55/3/3 53/3/3
f 59/3/3 57/3/3 53/3/3
f 59/3/3 58/3/3 57/3/3
f 60/3/3 58/3/3 59/3/3
f 65/1/3 62/1/3 61/1/3
f 66/1/3 62/1/3 65/1/3
f 67/2/3 64/2/3 63/2/3
f 68/2/3 64/2/3 67/2/3
f 71/3/3 70/3/3 69/3/3
f 72/3/3 70/3/3 71/3/3
f 73/3/3 70/3/3 72/3/3
f 77/3/3 75/3/3 74/3/3
f 77/3/3 76/3/3 75/3/3
f 78/3/3 76/3/3 77/3/3
f 79/3/4 80/3/4 81/3/4
f 81/3/4 80/3/4 82/3/4
f 82/3/4 80/3/4 83/3/4
f 84/3/4 85/3/4 87/3/4
f 85/3/4 86/3/4 87/3/4
f 87/3/4 86/3/4 88/3/4
f 89/1/4 90/1/4 93/1/4
f 93/1/4 90/1/4 94/1/4
f 91/2/4 92/2/4 95/2/4
f 95/2/4 92/2/4 96/2/4
f 97/3/4 98/3/4 99/3/4
f 99/3/4 98/3/4 100/3/4
f 97/3/4 99/3/4 101/3/4
f 97/3/4 101/3/4 103/3/4
f 101/3/4 102/3/4 103/3/4
f 103/3/4 102/3/4 104/3/4
f 107/1/5 106/1/5 105/1/5
f 108/1/5 106/1/5 107/1/5
f 111/3/5 110/3/5 109/3/5
f 112/3/5 110/3/5 111/3/5
f 113/3/5 111/3/5 109/3/5
f 114/3/5 110/3/5 112/3/5
f 115/3/5 113/3/5 109/3/5
f 115/3/5 114/3/5 113/3/5
f 116/3/5 110/3/5 114/3/5
f 116/3/5 114/3/5 115/3/5
f 117/3/6 118/3/6 120/3/6
f 120/3/6 118/3/6 121/3/6
f 119/3/6 120/3/6 123/3/6
f 123/3/6 120/3/6 124/3/6
f 121/3/6 122/3/6 125/3/6
f 125/3/6 122/3/6 126/3/6
f 124/3/6 125/3/6 127/3/6
f 127/3/6 125/3/6 128/3/6
f 129/2/6 130/2/6 131/2/6
f 131/2/6 130/2/6 132/2/6
f 133/3/6 134/3/6 137/3/6
f 137/3/6 134/3/6 138/3/6
f 135/3/6 136/3/6 139/3/6
f 139/3/6 136/3/6 140/3/6
f 141/3/6 142/3/6 145/3/6
f 145/3/6 142/3/6 146/3/6
f 143/3/6 144/3/6 147/3/6
f 147/3/6 144/3/6 148/3/6
